<svg width="65" height="63" viewBox="0 0 65 63" fill="none" xmlns="http://www.w3.org/2000/svg">
<g filter="url(#filter0_d_856_1557)">
<rect x="4" width="57" height="55" rx="4" fill="#0C0B14" shape-rendering="crispEdges"/>
<rect x="5" y="1" width="55" height="53" rx="3" stroke="#76BF87" stroke-width="2" shape-rendering="crispEdges"/>
<path d="M23.3409 15.7273H28.2045V31.9545C28.2045 33.4545 27.8674 34.7576 27.1932 35.8636C26.5265 36.9697 25.5985 37.822 24.4091 38.4205C23.2197 39.0189 21.8371 39.3182 20.2614 39.3182C18.8598 39.3182 17.5871 39.072 16.4432 38.5795C15.3068 38.0795 14.4053 37.322 13.7386 36.3068C13.072 35.2841 12.7424 34 12.75 32.4545H17.6477C17.6629 33.0682 17.7879 33.5947 18.0227 34.0341C18.2652 34.4659 18.5947 34.7992 19.0114 35.0341C19.4356 35.2614 19.9356 35.375 20.5114 35.375C21.1174 35.375 21.6288 35.2462 22.0455 34.9886C22.4697 34.7235 22.7917 34.3371 23.0114 33.8295C23.2311 33.322 23.3409 32.697 23.3409 31.9545V15.7273ZM32.2727 39V15.7273H37.1932V25.9886H37.5L45.875 15.7273H51.7727L43.1364 26.1477L51.875 39H45.9886L39.6136 29.4318L37.1932 32.3864V39H32.2727Z" fill="white"/>
</g>
<defs>
<filter id="filter0_d_856_1557" x="0" y="0" width="65" height="63" filterUnits="userSpaceOnUse" color-interpolation-filters="sRGB">
<feFlood flood-opacity="0" result="BackgroundImageFix"/>
<feColorMatrix in="SourceAlpha" type="matrix" values="0 0 0 0 0 0 0 0 0 0 0 0 0 0 0 0 0 0 127 0" result="hardAlpha"/>
<feOffset dy="4"/>
<feGaussianBlur stdDeviation="2"/>
<feComposite in2="hardAlpha" operator="out"/>
<feColorMatrix type="matrix" values="0 0 0 0 0 0 0 0 0 0 0 0 0 0 0 0 0 0 0.25 0"/>
<feBlend mode="normal" in2="BackgroundImageFix" result="effect1_dropShadow_856_1557"/>
<feBlend mode="normal" in="SourceGraphic" in2="effect1_dropShadow_856_1557" result="shape"/>
</filter>
</defs>
</svg>
