<svg width="32" height="32" viewBox="0 0 32 32" fill="none" xmlns="http://www.w3.org/2000/svg">
<rect x="1" y="1" width="30" height="30" rx="3" fill="#0C0B14"/>
<rect x="1" y="1" width="30" height="30" rx="3" stroke="#76BF87" stroke-width="2"/>
<path d="M11.1705 9.86364H13.6023V17.9773C13.6023 18.7273 13.4337 19.3788 13.0966 19.9318C12.7633 20.4848 12.2992 20.911 11.7045 21.2102C11.1098 21.5095 10.4186 21.6591 9.63068 21.6591C8.92992 21.6591 8.29356 21.536 7.72159 21.2898C7.15341 21.0398 6.70265 20.661 6.36932 20.1534C6.03598 19.642 5.87121 19 5.875 18.2273H8.32386C8.33144 18.5341 8.39394 18.7973 8.51136 19.017C8.63258 19.233 8.79735 19.3996 9.00568 19.517C9.2178 19.6307 9.4678 19.6875 9.75568 19.6875C10.0587 19.6875 10.3144 19.6231 10.5227 19.4943C10.7348 19.3617 10.8958 19.1686 11.0057 18.9148C11.1155 18.661 11.1705 18.3485 11.1705 17.9773V9.86364ZM15.6364 21.5V9.86364H18.0966V14.9943H18.25L22.4375 9.86364H25.3864L21.0682 15.0739L25.4375 21.5H22.4943L19.3068 16.7159L18.0966 18.1932V21.5H15.6364Z" fill="white"/>
</svg>
