<svg width="217" height="55" viewBox="0 0 217 55" fill="none" xmlns="http://www.w3.org/2000/svg">
<path d="M11.3409 15.7273H16.2045V31.9545C16.2045 33.4545 15.8674 34.7576 15.1932 35.8636C14.5265 36.9697 13.5985 37.822 12.4091 38.4205C11.2197 39.0189 9.83712 39.3182 8.26136 39.3182C6.85985 39.3182 5.58712 39.072 4.44318 38.5795C3.30682 38.0795 2.4053 37.322 1.73864 36.3068C1.07197 35.2841 0.742424 34 0.75 32.4545H5.64773C5.66288 33.0682 5.78788 33.5947 6.02273 34.0341C6.26515 34.4659 6.5947 34.7992 7.01136 35.0341C7.43561 35.2614 7.93561 35.375 8.51136 35.375C9.11742 35.375 9.62879 35.2462 10.0455 34.9886C10.4697 34.7235 10.7917 34.3371 11.0114 33.8295C11.2311 33.322 11.3409 32.697 11.3409 31.9545V15.7273ZM28.1364 39.3409C26.3409 39.3409 24.7955 38.9773 23.5 38.25C22.2121 37.5152 21.2197 36.4773 20.5227 35.1364C19.8258 33.7879 19.4773 32.1932 19.4773 30.3523C19.4773 28.5568 19.8258 26.9811 20.5227 25.625C21.2197 24.2689 22.2008 23.2121 23.4659 22.4545C24.7386 21.697 26.2311 21.3182 27.9432 21.3182C29.0947 21.3182 30.1667 21.5038 31.1591 21.875C32.1591 22.2386 33.0303 22.7879 33.7727 23.5227C34.5227 24.2576 35.1061 25.1818 35.5227 26.2955C35.9394 27.4015 36.1477 28.697 36.1477 30.1818V31.5114H21.4091V28.5114H31.5909C31.5909 27.8144 31.4394 27.197 31.1364 26.6591C30.8333 26.1212 30.4129 25.7008 29.875 25.3977C29.3447 25.0871 28.7273 24.9318 28.0227 24.9318C27.2879 24.9318 26.6364 25.1023 26.0682 25.4432C25.5076 25.7765 25.0682 26.2273 24.75 26.7955C24.4318 27.3561 24.2689 27.9811 24.2614 28.6705V31.5227C24.2614 32.3864 24.4205 33.1326 24.7386 33.7614C25.0644 34.3902 25.5227 34.875 26.1136 35.2159C26.7045 35.5568 27.4053 35.7273 28.2159 35.7273C28.7538 35.7273 29.2462 35.6515 29.6932 35.5C30.1402 35.3485 30.5227 35.1212 30.8409 34.8182C31.1591 34.5152 31.4015 34.1439 31.5682 33.7045L36.0455 34C35.8182 35.0758 35.3523 36.0152 34.6477 36.8182C33.9508 37.6136 33.0492 38.2348 31.9432 38.6818C30.8447 39.1212 29.5758 39.3409 28.1364 39.3409ZM53.8295 26.5227L49.3977 26.7955C49.322 26.4167 49.1591 26.0758 48.9091 25.7727C48.6591 25.4621 48.3295 25.2159 47.9205 25.0341C47.5189 24.8447 47.0379 24.75 46.4773 24.75C45.7273 24.75 45.0947 24.9091 44.5795 25.2273C44.0644 25.5379 43.8068 25.9545 43.8068 26.4773C43.8068 26.8939 43.9735 27.2462 44.3068 27.5341C44.6402 27.822 45.2121 28.053 46.0227 28.2273L49.1818 28.8636C50.8788 29.2121 52.1439 29.7727 52.9773 30.5455C53.8106 31.3182 54.2273 32.3333 54.2273 33.5909C54.2273 34.7348 53.8902 35.7386 53.2159 36.6023C52.5492 37.4659 51.6326 38.1402 50.4659 38.625C49.3068 39.1023 47.9697 39.3409 46.4545 39.3409C44.1439 39.3409 42.303 38.8598 40.9318 37.8977C39.5682 36.928 38.7689 35.6098 38.5341 33.9432L43.2955 33.6932C43.4394 34.3977 43.7879 34.9356 44.3409 35.3068C44.8939 35.6705 45.6023 35.8523 46.4659 35.8523C47.3144 35.8523 47.9962 35.6894 48.5114 35.3636C49.0341 35.0303 49.2992 34.6023 49.3068 34.0795C49.2992 33.6402 49.1136 33.2803 48.75 33C48.3864 32.7121 47.8258 32.4924 47.0682 32.3409L44.0455 31.7386C42.3409 31.3977 41.072 30.8068 40.2386 29.9659C39.4129 29.125 39 28.053 39 26.75C39 25.6288 39.303 24.6629 39.9091 23.8523C40.5227 23.0417 41.3826 22.4167 42.4886 21.9773C43.6023 21.5379 44.9053 21.3182 46.3977 21.3182C48.6023 21.3182 50.3371 21.7841 51.6023 22.7159C52.875 23.6477 53.6174 24.9167 53.8295 26.5227ZM57.2756 45.5455V21.5455H62.0483V24.4773H62.2642C62.4763 24.0076 62.7831 23.5303 63.1847 23.0455C63.5938 22.553 64.1241 22.1439 64.7756 21.8182C65.4347 21.4848 66.2528 21.3182 67.2301 21.3182C68.5028 21.3182 69.6771 21.6515 70.7528 22.3182C71.8286 22.9773 72.6884 23.9735 73.3324 25.3068C73.9763 26.6326 74.2983 28.2955 74.2983 30.2955C74.2983 32.2424 73.9839 33.8864 73.3551 35.2273C72.7339 36.5606 71.8854 37.572 70.8097 38.2614C69.7415 38.9432 68.5445 39.2841 67.2188 39.2841C66.2794 39.2841 65.4801 39.1288 64.821 38.8182C64.1695 38.5076 63.6354 38.1174 63.2188 37.6477C62.8021 37.1705 62.4839 36.6894 62.2642 36.2045H62.1165V45.5455H57.2756ZM62.0142 30.2727C62.0142 31.3106 62.1581 32.2159 62.446 32.9886C62.7339 33.7614 63.1506 34.3636 63.696 34.7955C64.2415 35.2197 64.9044 35.4318 65.6847 35.4318C66.4725 35.4318 67.1392 35.2159 67.6847 34.7841C68.2301 34.3447 68.643 33.7386 68.9233 32.9659C69.2112 32.1856 69.3551 31.2879 69.3551 30.2727C69.3551 29.2652 69.215 28.3788 68.9347 27.6136C68.6544 26.8485 68.2415 26.25 67.696 25.8182C67.1506 25.3864 66.4801 25.1705 65.6847 25.1705C64.8968 25.1705 64.2301 25.3788 63.6847 25.7955C63.1468 26.2121 62.7339 26.803 62.446 27.5682C62.1581 28.3333 62.0142 29.2348 62.0142 30.2727ZM85.4801 39.3409C83.6847 39.3409 82.1392 38.9773 80.8438 38.25C79.5559 37.5152 78.5634 36.4773 77.8665 35.1364C77.1695 33.7879 76.821 32.1932 76.821 30.3523C76.821 28.5568 77.1695 26.9811 77.8665 25.625C78.5634 24.2689 79.5445 23.2121 80.8097 22.4545C82.0824 21.697 83.5748 21.3182 85.2869 21.3182C86.4384 21.3182 87.5104 21.5038 88.5028 21.875C89.5028 22.2386 90.3741 22.7879 91.1165 23.5227C91.8665 24.2576 92.4498 25.1818 92.8665 26.2955C93.2831 27.4015 93.4915 28.697 93.4915 30.1818V31.5114H78.7528V28.5114H88.9347C88.9347 27.8144 88.7831 27.197 88.4801 26.6591C88.1771 26.1212 87.7566 25.7008 87.2188 25.3977C86.6884 25.0871 86.071 24.9318 85.3665 24.9318C84.6316 24.9318 83.9801 25.1023 83.4119 25.4432C82.8513 25.7765 82.4119 26.2273 82.0938 26.7955C81.7756 27.3561 81.6127 27.9811 81.6051 28.6705V31.5227C81.6051 32.3864 81.7642 33.1326 82.0824 33.7614C82.4081 34.3902 82.8665 34.875 83.4574 35.2159C84.0483 35.5568 84.7491 35.7273 85.5597 35.7273C86.0975 35.7273 86.59 35.6515 87.0369 35.5C87.4839 35.3485 87.8665 35.1212 88.1847 34.8182C88.5028 34.5152 88.7453 34.1439 88.9119 33.7045L93.3892 34C93.1619 35.0758 92.696 36.0152 91.9915 36.8182C91.2945 37.6136 90.393 38.2348 89.2869 38.6818C88.1884 39.1212 86.9195 39.3409 85.4801 39.3409ZM96.6506 39V21.5455H101.344V24.5909H101.526C101.844 23.5076 102.378 22.6894 103.128 22.1364C103.878 21.5758 104.741 21.2955 105.719 21.2955C105.961 21.2955 106.223 21.3106 106.503 21.3409C106.783 21.3712 107.029 21.4129 107.241 21.4659V25.7614C107.014 25.6932 106.7 25.6326 106.298 25.5795C105.897 25.5265 105.529 25.5 105.196 25.5C104.484 25.5 103.848 25.6553 103.287 25.9659C102.734 26.2689 102.295 26.6932 101.969 27.2386C101.651 27.7841 101.491 28.4129 101.491 29.125V39H96.6506ZM121.537 33.9773L121.548 28.1705H122.253L127.844 21.5455H133.401L125.889 30.3182H124.741L121.537 33.9773ZM117.151 39V15.7273H121.991V39H117.151ZM128.06 39L122.923 31.3977L126.151 27.9773L133.73 39H128.06ZM138.605 39.2955C137.855 39.2955 137.211 39.0303 136.673 38.5C136.143 37.9621 135.878 37.3182 135.878 36.5682C135.878 35.8258 136.143 35.1894 136.673 34.6591C137.211 34.1288 137.855 33.8636 138.605 33.8636C139.332 33.8636 139.969 34.1288 140.514 34.6591C141.06 35.1894 141.332 35.8258 141.332 36.5682C141.332 37.0682 141.204 37.5265 140.946 37.9432C140.696 38.3523 140.366 38.6818 139.957 38.9318C139.548 39.1742 139.098 39.2955 138.605 39.2955Z" fill="white"/>
<rect x="161" y="1" width="55" height="53" rx="3" stroke="#76BF87" stroke-width="2"/>
<path d="M179.341 15.7273H184.205V31.9545C184.205 33.4545 183.867 34.7576 183.193 35.8636C182.527 36.9697 181.598 37.822 180.409 38.4205C179.22 39.0189 177.837 39.3182 176.261 39.3182C174.86 39.3182 173.587 39.072 172.443 38.5795C171.307 38.0795 170.405 37.322 169.739 36.3068C169.072 35.2841 168.742 34 168.75 32.4545H173.648C173.663 33.0682 173.788 33.5947 174.023 34.0341C174.265 34.4659 174.595 34.7992 175.011 35.0341C175.436 35.2614 175.936 35.375 176.511 35.375C177.117 35.375 177.629 35.2462 178.045 34.9886C178.47 34.7235 178.792 34.3371 179.011 33.8295C179.231 33.322 179.341 32.697 179.341 31.9545V15.7273ZM188.273 39V15.7273H193.193V25.9886H193.5L201.875 15.7273H207.773L199.136 26.1477L207.875 39H201.989L195.614 29.4318L193.193 32.3864V39H188.273Z" fill="white"/>
</svg>
